<?xml version="1.0" encoding="UTF-8" standalone="no"?>
<svg
   xmlns:dc="http://purl.org/dc/elements/1.1/"
   xmlns:cc="http://creativecommons.org/ns#"
   xmlns:rdf="http://www.w3.org/1999/02/22-rdf-syntax-ns#"
   xmlns:svg="http://www.w3.org/2000/svg"
   xmlns="http://www.w3.org/2000/svg"
   xmlns:sodipodi="http://sodipodi.sourceforge.net/DTD/sodipodi-0.dtd"
   xmlns:inkscape="http://www.inkscape.org/namespaces/inkscape"
   width="1920px"
   height="1080px"
   viewBox="0 0 1920 1080"
   version="1.1"
   id="SVGRoot"
   sodipodi:docname="biero.svg"
   inkscape:version="1.0.1 (3bc2e813f5, 2020-09-07)"
   inkscape:export-filename="/home/julianvdh/biero.png"
   inkscape:export-xdpi="96"
   inkscape:export-ydpi="96">
  <defs
     id="defs10" />
  <sodipodi:namedview
     id="base"
     pagecolor="#ffffff"
     bordercolor="#666666"
     borderopacity="1.0"
     inkscape:pageopacity="0.0"
     inkscape:pageshadow="2"
     inkscape:zoom="0.35"
     inkscape:cx="862.79923"
     inkscape:cy="674.28571"
     inkscape:document-units="px"
     inkscape:current-layer="layer1"
     inkscape:document-rotation="0"
     showgrid="false"
     inkscape:window-width="1920"
     inkscape:window-height="1012"
     inkscape:window-x="0"
     inkscape:window-y="0"
     inkscape:window-maximized="1" />
  <metadata
     id="metadata13">
    <rdf:RDF>
      <cc:Work
         rdf:about="">
        <dc:format>image/svg+xml</dc:format>
        <dc:type
           rdf:resource="http://purl.org/dc/dcmitype/StillImage" />
        <dc:title></dc:title>
      </cc:Work>
    </rdf:RDF>
  </metadata>
  <g
     inkscape:label="Layer 1"
     inkscape:groupmode="layer"
     id="layer1">
    <path
       style="fill:none;stroke:#000000;stroke-width:1px;stroke-linecap:butt;stroke-linejoin:miter;stroke-opacity:1"
       d="m 201.41741,192.54464 c 390.95982,12.82366 427.15402,-20.59151 427.15402,-20.59151 0,0 346.81921,-102.031255 353.77231,-27.4442 6.9531,74.58706 567.13166,-21.77455 567.13166,-21.77455 0,0 322.8014,-33.917416 290.1451,165.63616 -32.6562,199.55357 -53.2701,233.05803 -200.8928,216.40625 -147.6228,-16.65179 -241.3059,-157.3884 -241.3059,-157.3884 0,0 -131.462,-243.32589 -431.56242,94.65402 -300.10045,337.97991 -317.47768,53.79464 -494.18527,106.52902 -176.70759,52.73438 -286.69643,-37.71205 -342.72322,83.01339 -56.026783,120.72545 133.3817,297.70089 133.3817,297.70089 0,0 177.79018,121.49559 417.80134,-25.58035 240.01116,-147.0759 258.71656,-268.51563 363.50447,-201.94197 104.788,66.57367 233.2812,229.17411 472.1652,197.83482 238.8839,-31.33928 322.0982,-58.93973 322.0982,-58.93973 l 22.6674,-5.02232"
       id="path23"
       sodipodi:nodetypes="ccscsscssscssscc" />
    <ellipse
       style="fill:#000000"
       id="path28"
       cx="202.10938"
       cy="194.40291"
       rx="28.649553"
       ry="29.157366" />
    <ellipse
       style="fill:#000000"
       id="path28-3"
       cx="595.3125"
       cy="192.70091"
       rx="28.649553"
       ry="29.157366" />
    <ellipse
       style="fill:#000000"
       id="path28-6"
       cx="1000.067"
       cy="169.3192"
       rx="28.649553"
       ry="29.157366" />
    <ellipse
       style="fill:#000000"
       id="path28-7"
       cx="1753.3481"
       cy="152.99107"
       rx="28.649553"
       ry="29.157366" />
    <ellipse
       style="fill:#000000"
       id="path28-5"
       cx="1511.2277"
       cy="460.35715"
       rx="28.649553"
       ry="29.157366" />
    <ellipse
       style="fill:#000000;stroke-width:0.980963"
       id="path28-35"
       cx="828.19189"
       cy="557.6618"
       rx="28.649553"
       ry="28.058035" />
    <ellipse
       style="fill:#000000"
       id="path28-62"
       cx="183.14731"
       cy="570.39062"
       rx="28.649553"
       ry="29.157366" />
    <ellipse
       style="fill:#000000"
       id="path28-9"
       cx="630.74774"
       cy="937.83484"
       rx="28.649553"
       ry="29.157366" />
    <ellipse
       style="fill:#000000"
       id="path28-1"
       cx="1350.2679"
       cy="891.20538"
       rx="28.649553"
       ry="29.157366" />
  </g>
</svg>
