<?xml version="1.0" encoding="UTF-8" standalone="no"?>
<svg
   xmlns:dc="http://purl.org/dc/elements/1.1/"
   xmlns:cc="http://creativecommons.org/ns#"
   xmlns:rdf="http://www.w3.org/1999/02/22-rdf-syntax-ns#"
   xmlns:svg="http://www.w3.org/2000/svg"
   xmlns="http://www.w3.org/2000/svg"
   xmlns:sodipodi="http://sodipodi.sourceforge.net/DTD/sodipodi-0.dtd"
   xmlns:inkscape="http://www.inkscape.org/namespaces/inkscape"
   height="512"
   viewBox="0 0 512 512"
   width="512"
   version="1.1"
   id="svg152"
   sodipodi:docname="body.svg"
   inkscape:version="1.0.1 (3bc2e813f5, 2020-09-07)"
   inkscape:export-filename="/home/julianvdh/Documents/GIT/biero/assets/static/images/body.png"
   inkscape:export-xdpi="96"
   inkscape:export-ydpi="96">
  <g
     id="g406">
    <path
       d="m296 104h56v40h-56z"
       fill="#fec093"
       id="path108" />
    <path
       d="m264 280 33.733-42.033a35.822 35.822 0 0 0 -8.427-3.155l-89.806-23.062v68.25z"
       fill="#404f66"
       id="path110" />
    <path
       d="m316.565 262.828a35.913 35.913 0 0 0 -18.832-24.861l-33.733 42.033 11.385 51.232 33.215-37.932a35.976 35.976 0 0 0 7.965-30.472z"
       fill="#fec093"
       id="path112" />
    <path
       d="m400 312a88 88 0 1 0 88 88 88 88 0 0 0 -88-88zm0 144a56 56 0 1 1 56-56 56 56 0 0 1 -56 56z"
       fill="#4d5e78"
       id="path114" />
    <path
       d="m112 312a88 88 0 1 0 88 88 88 88 0 0 0 -88-88zm0 144a56 56 0 1 1 56-56 56 56 0 0 1 -56 56z"
       fill="#4d5e78"
       id="path116" />
    <path
       d="m207.015 216h-71.015a35.1 35.1 0 0 0 33.3 24h6.7l33.194-6.3a8.984 8.984 0 0 0 6.806-8.715 8.985 8.985 0 0 0 -8.985-8.985z"
       fill="#4d5e78"
       id="path120" />
    <circle
       cx="248"
       cy="408"
       fill="#e0e0de"
       r="32"
       id="circle122" />
    <path
       d="m416 248a16.019 16.019 0 0 1 -16 16h-16v16h16a32 32 0 0 0 0-64h-16v16h16a16.019 16.019 0 0 1 16 16z"
       fill="#4d5e78"
       id="path124" />
    <path
       d="m208 208-.985-8h-71.015v14.305a40 40 0 0 0 13.093 29.6l62.336 56.668 38.571-38.573z"
       fill="#4d5e78"
       id="path130" />
    <path
       d="m384 72v40a32 32 0 1 1 -64 0v-40z"
       fill="#fec9a3"
       id="path136" />
    <path
       d="m384 72v40a32.017 32.017 0 0 1 -40.98 30.72 43.894 43.894 0 0 0 16.98-34.72v-32c0-1.35-.06-2.68-.18-4z"
       fill="#fec093"
       id="path138" />
    <path
       d="m320 104h-24l-8-32h32z"
       fill="#4d5e78"
       id="path140" />
    <path
       d="m320 200v-40h-40v48a32 32 0 0 0 32 32h112v-32z"
       fill="#fec9a3"
       id="path144" />
    <path
       d="m264 280-14-18-38.571 38.571 12.571 11.429 31.111 112h40.889z"
       fill="#fec9a3"
       id="path146" />
    <path
       d="m344 80h16v16h-16z"
       fill="#4d5e78"
       id="path150" />
  </g>
  <metadata
     id="metadata158">
    <rdf:RDF>
      <cc:Work
         rdf:about="">
        <dc:format>image/svg+xml</dc:format>
        <dc:type
           rdf:resource="http://purl.org/dc/dcmitype/StillImage" />
        <dc:title></dc:title>
      </cc:Work>
    </rdf:RDF>
  </metadata>
  <defs
     id="defs156" />
  <sodipodi:namedview
     pagecolor="#ffffff"
     bordercolor="#666666"
     borderopacity="1"
     objecttolerance="10"
     gridtolerance="10"
     guidetolerance="10"
     inkscape:pageopacity="0"
     inkscape:pageshadow="2"
     inkscape:window-width="1491"
     inkscape:window-height="958"
     id="namedview154"
     showgrid="false"
     inkscape:zoom="1.4804688"
     inkscape:cx="115.84169"
     inkscape:cy="256"
     inkscape:window-x="45"
     inkscape:window-y="29"
     inkscape:window-maximized="0"
     inkscape:current-layer="svg152" />
</svg>
