<?xml version="1.0" encoding="UTF-8" standalone="no"?>
<svg
   xmlns:dc="http://purl.org/dc/elements/1.1/"
   xmlns:cc="http://creativecommons.org/ns#"
   xmlns:rdf="http://www.w3.org/1999/02/22-rdf-syntax-ns#"
   xmlns:svg="http://www.w3.org/2000/svg"
   xmlns="http://www.w3.org/2000/svg"
   xmlns:sodipodi="http://sodipodi.sourceforge.net/DTD/sodipodi-0.dtd"
   xmlns:inkscape="http://www.inkscape.org/namespaces/inkscape"
   width="512px"
   height="512px"
   viewBox="0 0 512 512"
   version="1.1"
   id="SVGRoot"
   sodipodi:docname="color.svg"
   inkscape:version="1.0.1 (3bc2e813f5, 2020-09-07)"
   inkscape:export-filename="/home/julianvdh/Documents/GIT/biero/assets/static/images/color.png"
   inkscape:export-xdpi="96"
   inkscape:export-ydpi="96">
  <defs
     id="defs351" />
  <sodipodi:namedview
     id="base"
     pagecolor="#ffffff"
     bordercolor="#666666"
     borderopacity="1.0"
     inkscape:pageopacity="0.0"
     inkscape:pageshadow="2"
     inkscape:zoom="1.4"
     inkscape:cx="224.64285"
     inkscape:cy="273.92857"
     inkscape:document-units="px"
     inkscape:current-layer="layer1"
     inkscape:document-rotation="0"
     showgrid="false"
     inkscape:window-width="1490"
     inkscape:window-height="958"
     inkscape:window-x="45"
     inkscape:window-y="29"
     inkscape:window-maximized="0" />
  <metadata
     id="metadata354">
    <rdf:RDF>
      <cc:Work
         rdf:about="">
        <dc:format>image/svg+xml</dc:format>
        <dc:type
           rdf:resource="http://purl.org/dc/dcmitype/StillImage" />
        <dc:title />
      </cc:Work>
    </rdf:RDF>
  </metadata>
  <g
     inkscape:label="Layer 1"
     inkscape:groupmode="layer"
     id="layer1">
    <g
       id="g389"
       transform="translate(-0.1210926,-18.479357)"
       style="fill:#000000"
       inkscape:export-xdpi="96"
       inkscape:export-ydpi="96">
      <path
         id="path118"
         style="fill:#000000"
         transform="translate(0.1210926,18.479357)"
         d="M 340.18164,238.93164 347.8125,264 H 247.56445 c 0.40659,0.59087 0.79739,1.19191 1.0625,1.85156 1.21751,1.41374 2.33671,2.84777 3.18946,4.51953 0.21947,0.43024 0.34538,0.90548 0.56054,1.33789 0.16865,0.33893 -0.27968,-0.705 -0.41992,-1.05664 -0.0283,-0.0534 -0.12498,-0.20635 -0.0859,-0.16015 0.51581,0.61145 1.04968,1.21052 1.51758,1.85937 0.71317,0.98898 1.22194,2.64197 2.17383,3.42774 0.0588,0.0136 0.20138,0.10572 0.48047,0.32422 0.11416,0.0894 -0.43589,-0.29863 -0.37109,-0.22657 -0.0388,-0.028 -0.072,-0.0668 -0.10938,-0.0977 -0.33396,-0.0773 2.39485,2.6919 2.79297,3.25 0.0991,0.13898 0.16474,0.29717 0.2207,0.45898 0.16227,0.19982 0.26991,0.33916 0.40821,0.51172 h 84.06054 l -62.13867,75.45898 c 0.002,0.004 0.006,0.008 0.008,0.0117 1.61435,0.51945 1.91959,3.13854 2.06641,5.09375 0.10774,0.22977 0.22055,0.45555 0.35156,0.66211 0.45629,1.04317 0.47078,1.08464 0.92578,2.08399 0.0924,0.20291 0.40409,0.79348 0.28125,0.60742 -0.20047,-0.30367 -0.2764,-0.68676 -0.51562,-0.96094 -0.19578,-0.2244 -0.59375,-0.65237 -0.90821,-0.95117 -0.007,0.0492 -0.0173,0.0492 -0.0254,-0.0215 -0.2845,-0.26705 -0.49661,-0.42451 -0.38867,-0.17188 0.81148,1.89924 2.08105,3.56918 3.1211,5.35352 -0.007,0.12578 -0.004,0.10653 -0.01,0.21289 0.0241,0.0912 0.0482,0.18225 0.0723,0.27343 5.3e-4,0.002 0.003,0.004 0.004,0.006 0.0184,0.0552 0.049,0.18222 0.0703,0.25196 0.1045,0.18994 0.19983,0.38455 0.30469,0.57422 9.6e-4,0.002 0.003,0.002 0.004,0.004 0.66485,1.05586 1.53682,2.02622 2.03125,3.16211 l 67.375,-81.81445 36.67187,120.49218 15.30078,-4.65624 -49.30468,-162.02735 c -0.23302,-0.005 -0.46647,0.006 -0.69922,-0.0117 -2.7971,-0.21026 -4.32752,-0.62869 -6.05078,-1.27734 -0.009,-0.001 -0.0265,-0.003 -0.0352,-0.004 -2.61844,-0.30427 -5.13884,-1.18198 -7.68164,-1.87695 -0.97054,-0.26525 -1.77665,-0.98832 -2.76172,-1.2168 -0.30342,-0.12436 -0.6174,-0.22506 -0.93164,-0.32617 z m -54.22266,128.97852 c -0.003,-0.006 -0.007,-0.0117 -0.01,-0.0176 0.0342,0.12952 0.0674,0.25914 0.10156,0.38867 0.005,0.004 0.009,0.008 0.0137,0.0117 -0.0365,-0.12943 -0.0732,-0.27696 -0.10547,-0.38281 z m -0.01,-0.0176 c -0.0212,-0.0802 -0.0433,-0.16005 -0.0645,-0.24024 -0.0121,-0.0348 -0.0523,-0.0926 -0.0781,-0.14062 -0.002,0.0473 -0.004,0.0621 -0.006,0.10547 0.0486,0.0922 0.0982,0.18394 0.14844,0.27539 z m -2.85938,-5.9082 c 0.01,0.009 0.0154,0.01 0.0254,0.0195 0.0203,-0.15391 0.0215,-0.74488 -0.0684,-0.96094 -0.006,-0.0154 -0.0259,-0.0424 -0.0332,-0.0586 0.0246,0.34811 0.0483,0.73607 0.0762,0.99609 2.6e-4,0.002 -2.5e-4,0.002 0,0.004 z M 347.92383,240.9082 c 0.75207,0.27616 1.47191,0.68571 2.23828,0.90235 -0.66759,-0.27179 -1.36356,-0.56019 -2.23828,-0.90235 z m -152.10352,30.91992 c -1.16009,0.4823 -2.44463,0.93658 -4.83008,1.88282 -6.42564,1.36924 0.24791,0.0969 -8.75585,0.65234 -0.0808,0.0777 -0.19532,0.17004 -0.28907,0.25391 0.45026,0.007 0.88898,0.0173 1.27344,0.0234 0.0999,-0.0124 0.39329,-0.0563 0.45508,-0.0625 0.0763,-0.008 0.29541,0.0758 0.21875,0.0742 -0.14984,-0.003 -0.46625,-0.008 -0.67383,-0.0117 -0.35138,0.0435 -0.93225,0.13321 -1.55078,0.22071 -0.0847,0.072 -0.14128,0.13197 -0.23242,0.20703 -0.0447,0.12737 -0.0834,0.25783 -0.12891,0.38476 -0.40672,0.21225 -1.00999,0.56505 -1.65234,0.94727 -0.0165,0.0119 -0.0344,0.0253 -0.0508,0.0371 L 97.283203,403.65625 A 8,8 0 0 0 103.99805,416 h 144 a 8,8 0 0 0 6.17578,-2.91406 l 4.68359,-5.6875 c -0.22751,-0.42391 -0.42788,-0.81995 -0.55469,-1.08789 -0.0729,0.5477 -0.24966,-0.40064 -0.36328,-1.40235 -0.55711,-0.68046 -0.36739,-0.21604 -0.70703,-2.02929 -0.0277,0.0778 -0.02,0.28647 -0.084,0.23437 -0.13353,-0.10871 -0.15764,-0.30893 -0.21094,-0.47266 -0.10483,-0.32191 -0.204,-0.64702 -0.28125,-0.97656 -0.47754,-0.66396 -0.95152,-1.44414 -0.95508,-2.01562 -0.56816,-1.28643 -0.48736,-0.79295 -0.5664,-2.58203 0.01,-0.0956 0.008,-0.0839 0.0117,-0.11719 -0.0312,-0.10136 -0.0598,-0.1907 -0.0976,-0.32031 -0.19791,-0.21151 -0.23823,-0.67183 -0.61524,-2.24414 -0.5662,-0.0711 -0.43729,0.1571 -0.72461,-1.94727 0.0237,-0.24273 0.0145,-0.15142 0.0274,-0.29883 -0.49311,-0.48244 -0.72494,-0.86761 -1.00391,-1.52539 -0.0799,-0.0949 -0.17256,-0.17864 -0.24414,-0.28125 -0.017,-0.0237 -0.10388,-0.15358 -0.13672,-0.19922 l -0.57422,0.69727 -41.22461,-92.87305 c -1.58448,-0.52385 -1.68067,-1.26649 -0.94531,-2.13086 l -2.57422,-5.80078 c -0.17883,0.11424 -0.52631,-0.83751 -0.75586,-1.17578 -0.14842,-0.21873 -0.28587,-0.44481 -0.42773,-0.66797 -0.003,0.30857 0.002,0.61788 0.0234,0.92578 0.28727,0.26624 0.38481,0.47871 0.0547,0.5957 0.0441,0.33729 0.10448,0.67141 0.1875,1 0.1482,0.58655 0.72905,0.96653 1.09375,1.44922 -0.43013,-0.4386 -3.05523,-2.85458 -3.11523,-3.01953 -0.0609,-0.16758 -0.0998,-0.34173 -0.15234,-0.51172 -0.72055,-1.12578 -1.15519,-2.67479 -1.41602,-3.67773 -10e-4,-0.002 -0.005,-0.006 -0.006,-0.008 -0.0733,-0.15737 -0.11005,-0.32862 -0.14453,-0.5 -0.85218,-1.38285 -0.64903,0.014 -0.63477,-1.53711 -0.20269,-0.21024 -0.41636,-0.44861 -0.6289,-0.68555 -0.30056,-0.16684 -0.53711,-0.45684 -0.75977,-0.90039 -0.0846,-0.10584 -0.17437,-0.20733 -0.25586,-0.31445 -0.15091,-0.03 -0.24726,-0.21606 -0.32226,-0.4668 -0.71132,-1.02069 -1.1982,-2.03075 -1.00586,-2.74414 -0.52175,-0.96768 -1.05463,-1.9292 -1.48047,-2.94141 -0.28382,-0.67461 -0.54676,-1.35721 -0.80273,-2.04297 -0.22146,-0.32469 -0.44151,-0.65059 -0.66407,-0.97461 z m 6.55469,12.60743 c 0.009,0.0141 0.0204,0.04 0.0293,0.0547 -0.0271,-0.10391 -0.0805,-0.31433 -0.0996,-0.3789 0.0279,0.10648 0.0485,0.21556 0.0703,0.32422 z m 0.0293,0.0547 c 0.0324,0.12441 0.077,0.28343 0.12109,0.45313 0.0532,0.10757 0.22326,0.30222 0.30078,0.36523 -0.002,-0.0215 0.002,-0.0429 0,-0.0644 -0.17261,-0.34448 -0.29757,-0.5487 -0.42187,-0.75391 z m 0.42187,0.75391 c 0.0129,0.0258 0.0181,0.03 0.0312,0.0566 0.0218,0.0441 0.002,0.0347 -0.0312,0.008 0.05,0.61882 0.19643,1.22013 0.46875,1.67969 0.0727,0.12275 0.18491,0.24789 0.3125,0.375 -0.20379,-0.94576 -0.35605,-1.9056 -0.53125,-2.85937 -0.0728,-0.10025 -0.14549,-0.20848 -0.21875,-0.31446 -0.0377,0.34228 -0.0563,0.6951 -0.0312,1.05469 z m -23.17187,-8.84375 c 0.66258,-0.47794 1.3238,-0.9553 1.78125,-1.33203 0.0211,-0.0601 0.0411,-0.1208 0.0605,-0.18164 -0.0876,0.0125 -0.12548,0.0185 -0.21484,0.0312 -0.36079,0.20529 -0.72449,0.40802 -1.08984,0.60937 l -0.58203,0.89844 c 0.0157,-0.009 0.0292,-0.016 0.0449,-0.0254 z m 71.90625,-4.17578 c -0.1755,0.46102 -0.37279,0.91626 -0.57813,1.37109 0.24837,0.36217 0.45803,0.11834 0.57813,-1.37109 z m 153.55078,6.12891 c -0.46834,0.4576 -0.95984,0.94276 -1.45313,1.43554 a 32,32 0 0 0 0.41602,-0.0508 c 0.56901,-0.25718 1.1304,-0.54197 1.67578,-0.875 -0.2129,-0.16984 -0.42559,-0.34019 -0.63867,-0.50976 z m -2.32422,0.4746 c -0.006,10e-4 -0.0166,0.0129 -0.0234,0.0156 -0.18073,0.35176 -0.33555,0.71011 -0.47851,1.07227 a 32,32 0 0 0 0.13281,-0.01 c 0.35061,-0.74352 0.46415,-1.09774 0.36914,-1.07813 z M 189.66602,290.33008 238.3457,400 H 118.70508 Z m 93.61523,74.13476 c -0.005,0.0107 0.01,0.0375 0.0469,0.084 0.3669,0.46346 0.76295,0.90309 1.16602,1.33594 -0.0394,-0.12667 -0.0641,-0.25781 -0.10937,-0.38282 -0.14151,-0.39044 -1.07073,-1.11209 -1.10352,-1.03711 z m 2.82422,4.01954 c 0.13637,0.51657 0.27152,1.03284 0.41015,1.54882 0.16173,0.60192 -0.12653,-0.55578 -0.39257,-1.52539 -0.006,-0.008 -0.0116,-0.0157 -0.0176,-0.0234 z m -17.05078,13.02343 c -0.1675,-0.007 -0.30467,9.6e-4 -0.38867,0.0156 0.12446,0.0641 0.25631,0.12687 0.35742,0.17968 0.37658,0.1022 0.75759,0.18698 1.14258,0.25782 -0.065,-0.0755 -0.11877,-0.16273 -0.17579,-0.2461 -0.19775,-0.12894 -0.60488,-0.193 -0.93554,-0.20703 z m -12.95703,19.0918 c 0.004,0.0233 0.003,0.0617 0.008,0.082 0.0181,0.0775 0.14208,0.28319 0.11328,0.20898 -0.0548,-0.14147 -0.072,-0.16802 -0.12109,-0.29101 z m 1,1.75391 c 0.0157,0.0267 0.13448,0.1372 0.47656,0.48242 -0.002,-0.003 -0.16764,-0.18909 -0.39649,-0.47071 -0.0352,-0.0112 -0.0889,-0.0267 -0.0801,-0.0117 z m 1.24218,3.08007 c 0.0164,0.0892 0.0212,0.18093 0.0469,0.26758 0.0758,0.2554 0.67923,0.81972 0.53516,0.59571 -0.23272,-0.36179 -0.42165,-0.63886 -0.58204,-0.86329 z" />
      <path
         id="path126"
         style="fill:#000000"
         transform="translate(0.1210926,18.479357)"
         d="m 289.83984,104 a 226.922,226.922 0 0 0 -95.09375,20.88672 l -15.16601,7 A 75.019,75.019 0 0 0 135.99805,200 h 71.01562 l 0.98438,-16 h 72 l 40,-24 v -32 a 24,24 0 0 0 -24,-24 z" />
      <path
         d="m 320.11966,146.47966 v 32 l -40,24 h -56.39 c 21.65,-12.26 60.18,-38.66 78.53,-79.2 a 24,24 0 0 1 17.86,23.2 z"
         fill="#77ad50"
         id="path128"
         style="fill:#000000" />
      <path
         d="m 384.11966,90.479659 h -96 a 47.813,47.813 0 0 1 14.06,-33.94 46.732,46.732 0 0 1 6.48,-5.43 48,48 0 0 1 75.46,39.37 z"
         fill="#7eb457"
         id="path132"
         style="fill:#000000" />
      <path
         d="m 384.11966,90.479659 h -24.18 a 44.043,44.043 0 0 0 -51.28,-39.37 48,48 0 0 1 75.46,39.37 z"
         fill="#77ad50"
         id="path134"
         style="fill:#000000" />
      <path
         d="m 320.11966,142.47966 a 20,20 0 0 0 -40,0 v 36 h 40 z"
         fill="#88c25e"
         id="path142"
         style="fill:#000000" />
      <path
         d="m 296.11966,442.47967 h -40.889 l 8.889,32 h 56 v -16 z"
         fill="#7eb457"
         id="path148"
         style="fill:#000000" />
    </g>
    <path
       id="path428"
       style="fill:#000000;stroke-width:0.714286"
       d="m 340.61914,239.08594 c 0.426,1.4387 0.78259,2.67961 1.2793,4.31836 3.19529,10.54195 5.94537,19.56947 6.11133,20.06054 0.24016,0.71062 -15.32835,0.89149 -76.28125,0.89063 h -23.92188 c 0.31533,0.47874 0.60825,0.96843 0.82031,1.49609 1.21751,1.41374 2.33671,2.84777 3.18946,4.51953 0.21947,0.43024 0.34538,0.90548 0.56054,1.33789 0.16865,0.33893 -0.27968,-0.705 -0.41992,-1.05664 -0.0283,-0.0534 -0.12498,-0.20635 -0.0859,-0.16015 0.51581,0.61145 1.04968,1.21052 1.51758,1.85937 0.71317,0.98898 1.22194,2.64197 2.17383,3.42774 0.0588,0.0136 0.20138,0.10572 0.48047,0.32422 0.11416,0.0894 -0.43589,-0.29863 -0.37109,-0.22657 -0.0388,-0.028 -0.072,-0.0668 -0.10938,-0.0977 -0.33396,-0.0773 2.39485,2.6919 2.79297,3.25 0.0709,0.0994 0.11286,0.21477 0.1582,0.32812 h 14.46289 c 44.47102,0 70.41192,0.25138 70.26172,0.68164 -0.13095,0.37514 -20.63427,25.44714 -45.5625,55.71485 -6.08636,7.39001 -11.27253,13.64731 -16.42773,19.86718 1.3224,0.75396 1.59642,3.13226 1.73242,4.94336 0.10774,0.22977 0.22055,0.45555 0.35156,0.66211 0.45629,1.04317 0.47078,1.08464 0.92578,2.08399 0.0924,0.20291 0.40409,0.79348 0.28125,0.60742 -0.20047,-0.30367 -0.2764,-0.68676 -0.51562,-0.96094 -0.19578,-0.2244 -0.59375,-0.65237 -0.90821,-0.95117 -0.007,0.0492 -0.0173,0.0492 -0.0254,-0.0215 -0.2845,-0.26705 -0.49661,-0.42451 -0.38867,-0.17188 0.81148,1.89924 2.08105,3.56918 3.1211,5.35352 -0.007,0.12578 -0.004,0.10653 -0.01,0.21289 0.0241,0.0912 0.0482,0.18225 0.0723,0.27343 5.3e-4,0.002 0.003,0.004 0.004,0.006 0.0184,0.0552 0.049,0.18222 0.0703,0.25196 0.1045,0.18994 0.19983,0.38455 0.30469,0.57422 9.6e-4,0.002 0.003,0.002 0.004,0.004 0.57174,0.90799 1.29636,1.75408 1.80273,2.69531 5.08754,-6.12721 10.18302,-12.26331 16.17774,-19.54101 28.26361,-34.31261 51.48615,-62.28431 51.60547,-62.1582 0.11931,0.12608 7.97821,25.78348 17.46484,57.01562 9.48664,31.23214 17.72548,58.26594 18.30859,60.07422 l 1.06055,3.28711 7.1582,-2.19336 c 6.89218,-2.11165 7.1433,-2.2597 6.71289,-3.97461 -0.24589,-0.97969 -11.85509,-39.24045 -25.79687,-85.02344 -9.91707,-32.56638 -18.44241,-60.7159 -22.73633,-75.03125 -0.1275,-0.006 -0.25539,0.004 -0.38281,-0.006 -2.7971,-0.21026 -4.32752,-0.62869 -6.05078,-1.27734 -0.009,-0.001 -0.0265,-0.003 -0.0352,-0.004 -2.61844,-0.30427 -5.13884,-1.18198 -7.68164,-1.87695 -0.97054,-0.26525 -1.77665,-0.98832 -2.76172,-1.2168 -0.16082,-0.0659 -0.32998,-0.11307 -0.49414,-0.17187 z m -54.66016,128.82422 c -0.003,-0.006 -0.007,-0.0117 -0.01,-0.0176 0.0342,0.12952 0.0674,0.25914 0.10156,0.38867 0.005,0.004 0.009,0.008 0.0137,0.0117 -0.0365,-0.12943 -0.0732,-0.27696 -0.10547,-0.38281 z m -0.01,-0.0176 c -0.0212,-0.0802 -0.0433,-0.16005 -0.0645,-0.24024 -0.0121,-0.0348 -0.0523,-0.0926 -0.0781,-0.14062 -0.002,0.0473 -0.004,0.0621 -0.006,0.10547 0.0486,0.0922 0.0982,0.18394 0.14844,0.27539 z m -2.85938,-5.9082 c 0.01,0.009 0.0154,0.01 0.0254,0.0195 0.0203,-0.15391 0.0215,-0.74488 -0.0684,-0.96094 -0.006,-0.0154 -0.0259,-0.0424 -0.0332,-0.0586 0.0246,0.34811 0.0483,0.73607 0.0762,0.99609 2.6e-4,0.002 -2.5e-4,0.002 0,0.004 z M 347.92383,240.9082 c 0.75207,0.27616 1.47191,0.68571 2.23828,0.90235 -0.66759,-0.27179 -1.36356,-0.56019 -2.23828,-0.90235 z m -152.10352,30.91992 c -1.16009,0.4823 -2.44463,0.93658 -4.83008,1.88282 -6.42564,1.36924 0.24791,0.0969 -8.75585,0.65234 -0.0808,0.0777 -0.19532,0.17004 -0.28907,0.25391 0.45026,0.007 0.88898,0.0173 1.27344,0.0234 0.0999,-0.0124 0.39329,-0.0563 0.45508,-0.0625 0.0763,-0.008 0.29541,0.0758 0.21875,0.0742 -0.14984,-0.003 -0.46625,-0.008 -0.67383,-0.0117 -0.35138,0.0435 -0.93225,0.13321 -1.55078,0.22071 -0.0847,0.072 -0.14128,0.13197 -0.23242,0.20703 -0.0447,0.12737 -0.0834,0.25777 -0.12891,0.38476 -0.38654,0.20173 -0.96388,0.54017 -1.57031,0.9004 -5.47932,8.83902 -21.39039,33.70068 -40.26563,62.87109 -23.35159,36.08831 -42.65977,66.42621 -42.9082,67.41601 -0.70647,2.8148 1.354396,6.87984 4.08984,8.06836 1.98289,0.86153 13.70373,1.02523 75.34961,1.04883 56.28921,0.0215 73.44317,-0.17231 74.92969,-0.84961 0.36684,-0.16714 3.17725,-3.33854 7.48633,-8.36328 -0.0347,-0.0716 -0.0866,-0.17391 -0.11524,-0.23437 -0.0729,0.5477 -0.24966,-0.40064 -0.36328,-1.40235 -0.55711,-0.68046 -0.36739,-0.21604 -0.70703,-2.02929 -0.0277,0.0778 -0.02,0.28647 -0.084,0.23437 -0.13353,-0.10871 -0.15764,-0.30892 -0.21094,-0.47266 -0.10483,-0.32191 -0.204,-0.64702 -0.28125,-0.97656 -0.47754,-0.66396 -0.95152,-1.44414 -0.95508,-2.01562 -0.56816,-1.28643 -0.48736,-0.79295 -0.5664,-2.58203 0.01,-0.0956 0.008,-0.0839 0.0117,-0.11719 -0.0312,-0.10136 -0.0598,-0.1907 -0.0976,-0.32031 -0.19791,-0.21151 -0.23823,-0.67183 -0.61524,-2.24414 -0.5662,-0.0711 -0.43729,0.1571 -0.72461,-1.94727 0.0237,-0.24273 0.0145,-0.15142 0.0274,-0.29883 -0.49311,-0.48244 -0.72494,-0.86761 -1.00391,-1.52539 -0.0799,-0.0949 -0.17256,-0.17864 -0.24414,-0.28125 -0.0156,-0.0218 -0.0959,-0.14309 -0.125,-0.18359 -0.31196,0.34977 -0.57244,0.63672 -0.59766,0.63672 -0.32256,0 -0.86456,-0.7235 -1.20507,-1.60743 -0.34051,-0.88393 -11.14133,-25.23046 -24,-54.10546 -6.75177,-15.16153 -12.19373,-27.50936 -16.47657,-37.29102 -0.95963,-0.433 -1.09355,-0.9868 -0.70898,-1.61719 -1.09997,-2.51595 -2.60944,-5.9392 -3.42969,-7.83398 -0.0326,-0.0508 -0.0653,-0.10143 -0.0977,-0.15235 -0.001,0.31016 0.004,0.6206 0.0254,0.92969 0.28727,0.26624 0.38481,0.4787 0.0547,0.5957 0.0441,0.33729 0.10448,0.67141 0.1875,1 0.1482,0.58655 0.72905,0.96653 1.09375,1.44922 -0.43013,-0.4386 -3.05523,-2.85458 -3.11523,-3.01953 -0.0609,-0.16758 -0.0998,-0.34173 -0.15234,-0.51172 -0.72055,-1.12578 -1.15519,-2.67479 -1.41602,-3.67773 -10e-4,-0.002 -0.005,-0.006 -0.006,-0.008 -0.0733,-0.15737 -0.11005,-0.32862 -0.14453,-0.5 -0.85218,-1.38285 -0.64903,0.014 -0.63477,-1.53711 -0.20269,-0.21024 -0.41636,-0.44861 -0.6289,-0.68555 -0.30056,-0.16684 -0.53711,-0.45684 -0.75977,-0.90039 -0.0846,-0.10584 -0.17437,-0.20733 -0.25586,-0.31445 -0.15091,-0.03 -0.24726,-0.21606 -0.32226,-0.4668 -0.71132,-1.02069 -1.1982,-2.03075 -1.00586,-2.74414 -0.52175,-0.96768 -1.05463,-1.9292 -1.48047,-2.94141 -0.28357,-0.67402 -0.54502,-1.35782 -0.80078,-2.04297 -0.22167,-0.32499 -0.44325,-0.65029 -0.66602,-0.97461 z m 6.55469,12.60743 c 0.009,0.0141 0.0204,0.04 0.0293,0.0547 -0.0271,-0.10391 -0.0805,-0.31433 -0.0996,-0.3789 0.0279,0.10648 0.0485,0.21556 0.0703,0.32422 z m 0.0293,0.0547 c 0.0324,0.12441 0.077,0.28343 0.12109,0.45313 0.0532,0.10757 0.22326,0.30222 0.30078,0.36523 -0.002,-0.0215 0.002,-0.0429 0,-0.0644 -0.17261,-0.34448 -0.29757,-0.5487 -0.42187,-0.75391 z m 0.42187,0.75391 c 0.0129,0.0258 0.0181,0.03 0.0312,0.0566 0.0218,0.0441 0.002,0.0347 -0.0312,0.008 0.05,0.61882 0.19643,1.22013 0.46875,1.67969 0.0727,0.12275 0.18491,0.24789 0.3125,0.375 -0.20379,-0.94576 -0.35605,-1.9056 -0.53125,-2.85937 -0.0728,-0.10025 -0.14549,-0.20848 -0.21875,-0.31446 -0.0377,0.34228 -0.0563,0.6951 -0.0312,1.05469 z m -21.39062,-10.17578 c 0.0211,-0.0601 0.0411,-0.1208 0.0605,-0.18164 -0.0876,0.0125 -0.12548,0.0185 -0.21484,0.0312 -0.3325,0.18936 -0.66712,0.37709 -1.00391,0.5625 -0.15519,0.25216 -0.34728,0.55833 -0.52539,0.8457 0.62532,-0.45123 1.25137,-0.90186 1.6836,-1.25781 z m 70.125,-2.84375 c -0.1755,0.46102 -0.37279,0.91626 -0.57813,1.37109 0.24837,0.36217 0.45803,0.11834 0.57813,-1.37109 z m 153.55078,6.12891 c -0.19253,0.18811 -0.3997,0.39563 -0.59766,0.58984 0.42128,-0.0291 0.84921,-0.0571 1.21875,-0.0937 -0.20709,-0.16524 -0.41382,-0.33115 -0.62109,-0.49609 z m -2.32422,0.4746 c -0.006,10e-4 -0.0166,0.0129 -0.0234,0.0156 -0.0318,0.0619 -0.0572,0.12533 -0.0879,0.1875 0.0377,-0.002 0.0877,-0.002 0.125,-0.004 0.0356,-0.13725 0.0331,-0.20879 -0.0137,-0.19922 z m -213.16406,11.44727 c 0.45447,-0.13353 48.00902,106.343 48.60742,108.83399 0.19215,0.79982 -9.86585,0.96289 -59.86328,0.96289 -47.88711,0 -59.98451,-0.18305 -59.55469,-0.89454 3.9893,-6.60351 70.43414,-108.79175 70.81055,-108.90234 z m 93.6582,74.18945 c -0.005,0.0107 0.01,0.0375 0.0469,0.084 0.3669,0.46346 0.76295,0.90309 1.16602,1.33594 -0.0394,-0.12667 -0.0641,-0.25781 -0.10937,-0.38282 -0.14151,-0.39044 -1.07073,-1.11209 -1.10352,-1.03711 z m 2.82422,4.01954 c 0.13637,0.51657 0.27152,1.03284 0.41015,1.54882 0.16173,0.60192 -0.12653,-0.55578 -0.39257,-1.52539 -0.006,-0.008 -0.0116,-0.0157 -0.0176,-0.0234 z m -17.05078,13.02343 c -0.1675,-0.007 -0.30467,9.6e-4 -0.38867,0.0156 0.12446,0.0641 0.25631,0.12687 0.35742,0.17968 0.37658,0.1022 0.75759,0.18698 1.14258,0.25782 -0.065,-0.0755 -0.11877,-0.16273 -0.17579,-0.2461 -0.19775,-0.12894 -0.60488,-0.193 -0.93554,-0.20703 z m -12.95703,19.0918 c 0.004,0.0233 0.003,0.0617 0.008,0.082 0.0181,0.0775 0.14208,0.28319 0.11328,0.20898 -0.0548,-0.14147 -0.072,-0.16802 -0.12109,-0.29101 z m 1,1.75391 c 0.0157,0.0267 0.13448,0.1372 0.47656,0.48242 -0.002,-0.003 -0.16764,-0.18909 -0.39649,-0.47071 -0.0352,-0.0112 -0.0889,-0.0267 -0.0801,-0.0117 z m 1.24218,3.08007 c 0.0164,0.0892 0.0212,0.18093 0.0469,0.26758 0.0376,0.12662 0.20413,0.32983 0.3457,0.47461 0.0192,-0.0224 0.0412,-0.0478 0.0606,-0.0703 -0.16661,-0.25359 -0.32829,-0.49719 -0.45313,-0.67188 z" />
    <path
       style="fill:#000000;stroke-width:0.714286"
       d="m 260.02909,440.25 -4.28559,-15.53571 20.01909,-0.18994 20.01909,-0.18993 12.00202,7.97343 12.00201,7.97344 v 7.75221 7.75221 H 292.0502 264.31469 Z"
       id="path430"
       inkscape:export-xdpi="96"
       inkscape:export-ydpi="96" />
    <path
       style="fill:#000000;stroke-width:0.714286"
       d="m 136.2185,197.75 c 0.0104,-3.95414 2.26549,-16.01885 3.90987,-20.91737 5.2123,-15.52718 15.76468,-29.42554 29.3002,-38.59079 6.28769,-4.25756 30.46445,-15.60795 42.96159,-20.16941 22.41753,-8.18239 45.86516,-12.68956 69.89555,-13.43552 l 12.14286,-0.37694 -2.92937,1.39462 c -3.66476,1.74473 -7.64737,5.68076 -9.72817,9.61438 -1.39077,2.62916 -1.62981,4.34279 -1.86057,13.33797 l -0.26477,10.32122 -3.49928,3.96449 c -9.10667,10.31735 -29.37382,26.76391 -44.38869,36.02094 l -7.67085,4.72927 h -8.11872 -8.11871 l -0.45536,4.82143 c -0.25044,2.65178 -0.45764,6.1875 -0.46043,7.85714 l -0.005,3.03571 h -35.35714 -35.35714 l 0.004,-1.60714 z"
       id="path432"
       inkscape:export-xdpi="96"
       inkscape:export-ydpi="96" />
    <path
       style="fill:#000000;stroke-width:0.714286"
       d="m 280.51569,139.53571 c 0.0141,-18.40734 0.15188,-20.83183 1.32979,-23.39285 1.8525,-4.02772 7.56858,-9.38193 11.41531,-10.69265 9.3139,-3.17356 19.54771,0.99897 24.23206,9.8799 l 1.93572,3.66989 0.22761,20.53571 0.22761,20.53572 H 300.19189 280.5 Z"
       id="path434"
       inkscape:export-xdpi="96"
       inkscape:export-ydpi="96" />
    <path
       style="fill:#000000;stroke-width:0.714286"
       d="m 237.82143,183.82232 c 7.75893,-0.11531 20.45536,-0.11531 28.21428,0 7.75893,0.11532 1.41072,0.20967 -14.10714,0.20967 -15.51786,0 -21.86607,-0.0944 -14.10714,-0.20967 z"
       id="path436"
       inkscape:export-xdpi="96"
       inkscape:export-ydpi="96" />
    <path
       style="fill:#000000;stroke-width:0.714286"
       d="M 235.20591,177.12743 C 250.6661,166.99054 259.21266,160.1127 271.75,147.71858 l 8.03571,-7.94392 v 10.14839 10.14838 h 19.8115 19.81149 l -19.63292,11.78274 -19.63292,11.78273 -27.43695,0.003 -27.43695,0.003 z"
       id="path438"
       inkscape:export-xdpi="96"
       inkscape:export-ydpi="96" />
    <path
       style="fill:#000000;stroke-width:0.714286"
       d="m 288.35714,69.684172 c 0,-4.212125 2.42983,-13.227919 5.01689,-18.615047 3.10431,-6.464196 11.08005,-15.713936 15.25985,-17.697381 3.35232,-1.59078 11.0826,-1.482088 17.85935,0.251112 17.14889,4.385947 29.42966,17.691753 32.81663,35.555715 L 359.75,71.5 h -35.69643 -35.69643 z"
       id="path440"
       inkscape:export-xdpi="96"
       inkscape:export-ydpi="96" />
    <path
       style="fill:#000000;stroke-width:0.714286"
       d="m 359.10115,66.737416 c -1.54239,-7.75974 -5.84148,-15.461329 -12.11168,-21.697429 -8.7468,-8.699235 -18.68773,-12.94142 -30.59661,-13.056769 -3.24107,-0.03139 -5.89286,-0.168804 -5.89286,-0.305356 0,-0.136553 2.34167,-1.36033 5.2037,-2.719504 14.92622,-7.088428 32.89308,-5.724746 46.85358,3.55618 11.54497,7.675082 19.56667,20.971961 20.61037,34.164033 L 383.54909,71.5 H 371.79845 360.0478 Z"
       id="path442"
       inkscape:export-xdpi="96"
       inkscape:export-ydpi="96" />
  </g>
</svg>
